<?xml version="1.0" encoding="UTF-8" standalone="no"?>
<!-- Created with Inkscape (http://www.inkscape.org/) -->
<svg
   xmlns:dc="http://purl.org/dc/elements/1.1/"
   xmlns:cc="http://creativecommons.org/ns#"
   xmlns:rdf="http://www.w3.org/1999/02/22-rdf-syntax-ns#"
   xmlns:svg="http://www.w3.org/2000/svg"
   xmlns="http://www.w3.org/2000/svg"
   xmlns:sodipodi="http://sodipodi.sourceforge.net/DTD/sodipodi-0.dtd"
   xmlns:inkscape="http://www.inkscape.org/namespaces/inkscape"
   id="svg2557"
   sodipodi:version="0.32"
   inkscape:version="0.46"
   width="1600"
   height="1600"
   version="1.0"
   sodipodi:docname="radiodevil.svg"
   inkscape:output_extension="org.inkscape.output.svg.inkscape"
   inkscape:export-filename="/tmp/radiodevil.png"
   inkscape:export-xdpi="33.75"
   inkscape:export-ydpi="33.75">
  <sodipodi:namedview
     inkscape:window-height="940"
     inkscape:window-width="1272"
     inkscape:pageshadow="2"
     inkscape:pageopacity="0.0"
     guidetolerance="10.0"
     gridtolerance="10.0"
     objecttolerance="10.0"
     borderopacity="1.0"
     bordercolor="#666666"
     pagecolor="#ffffff"
     id="base"
     showgrid="false"
     inkscape:zoom="0.33375"
     inkscape:cx="586.73421"
     inkscape:cy="675.21208"
     inkscape:window-x="0"
     inkscape:window-y="0"
     inkscape:current-layer="svg2557" />
  <metadata
     id="metadata2562">
    <rdf:RDF>
      <cc:Work
         rdf:about="">
        <dc:format>image/svg+xml</dc:format>
        <dc:type
           rdf:resource="http://purl.org/dc/dcmitype/StillImage" />
      </cc:Work>
    </rdf:RDF>
  </metadata>
  <defs
     id="defs2560">
    <linearGradient
       id="linearGradient3393">
      <stop
         style="stop-color:#c8e7e9;stop-opacity:1;"
         offset="0"
         id="stop3395" />
      <stop
         style="stop-color:#c8e7e9;stop-opacity:0;"
         offset="1"
         id="stop3397" />
    </linearGradient>
    <linearGradient
       id="linearGradient3385">
      <stop
         id="stop3387"
         offset="0"
         style="stop-color:#c8e7e9;stop-opacity:1;" />
      <stop
         id="stop3389"
         offset="1"
         style="stop-color:#c8e7e9;stop-opacity:0;" />
    </linearGradient>
    <inkscape:perspective
       id="perspective2564"
       inkscape:persp3d-origin="372.04724 : 350.78739 : 1"
       inkscape:vp_z="744.09448 : 526.18109 : 1"
       inkscape:vp_y="0 : 1000 : 0"
       inkscape:vp_x="0 : 526.18109 : 1"
       sodipodi:type="inkscape:persp3d" />
    <filter
       height="1.2355779"
       y="-0.11778896"
       width="1.0916873"
       x="-0.045843654"
       id="filter3523"
       inkscape:collect="always">
      <feGaussianBlur
         id="feGaussianBlur3525"
         stdDeviation="14.285862"
         inkscape:collect="always" />
    </filter>
    <filter
       height="1.2408261"
       y="-0.12041307"
       width="1.0854155"
       x="-0.042707772"
       id="filter3527"
       inkscape:collect="always">
      <feGaussianBlur
         id="feGaussianBlur3529"
         stdDeviation="13.308653"
         inkscape:collect="always" />
    </filter>
    <filter
       height="1.2685717"
       y="-0.13428584"
       width="1.0842761"
       x="-0.042138056"
       id="filter3531"
       inkscape:collect="always">
      <feGaussianBlur
         id="feGaussianBlur3533"
         stdDeviation="13.131118"
         inkscape:collect="always" />
    </filter>
  </defs>
  <g
     transform="matrix(1.5516944,0,0,-1,-531.76408,1657.5528)"
     id="g2578">
    <path
       sodipodi:nodetypes="ccc"
       id="path2584"
       d="M 800,1600 L 0,1600 L 800,1600 z"
       style="fill:#fdfdfd" />
    <path
       sodipodi:nodetypes="cccccccssc"
       id="path2580"
       d="M 828.93448,693.79587 C 843.59523,694.02503 886.619,695.87182 885.60461,694.48364 L 885.23221,1600 C 885.3874,1609.8516 856.94053,1609.6397 857.09573,1610.4869 C 857.25092,1609.6397 832.51173,1611.4406 828.95925,1600 C 828.3754,1599.2793 829.02761,695.22468 828.93448,693.79587 z M 634.45888,307.93347 C 633.28625,306.03612 634.9965,305.56793 636.7381,307.30952 C 638.29704,308.86847 638.29978,309 636.7733,309 C 635.8629,309 634.82142,308.52006 634.45888,307.93347 z"
       style="fill:#443f3e;stroke:none;stroke-opacity:1;stroke-width:2.40834198999999982;stroke-miterlimit:4;stroke-dasharray:none;fill-opacity:1" />
    <path
       sodipodi:nodetypes="csssssssssssssssssssccsccccssssssssssssscccsssssssscccsssssssssssssccc"
       id="path2582"
       d="M 765.90139,699.13404 C 758.25353,698.39374 750.33616,697.38154 748.30726,696.88471 C 746.27836,696.38788 741.53899,695.60547 737.77532,695.14601 C 711.20005,691.90178 685.3639,684.52014 669.57712,675.66112 C 648.34677,663.74734 634.12615,639.95708 627.35376,605.02399 C 621.79396,576.34559 624.86929,533.0182 638.54672,447.33012 C 640.74794,433.5396 643.39772,415.94067 644.43511,408.22139 C 645.4725,400.50211 647.30581,388.09323 648.50914,380.64609 C 651.50023,362.13483 657.74847,312.81966 657.67743,308.28408 C 657.64564,306.25429 657.23946,304.36766 656.77481,304.09159 C 656.31016,303.8155 653.06802,305.01023 649.57005,306.74652 C 641.33426,310.83453 633.70418,313.89317 631.65104,313.92964 C 629.01635,313.97644 627.48788,311.39852 628.16299,308.04661 C 628.49936,306.37651 636.448,291.70461 645.82661,275.44241 C 668.28715,236.49663 671.75025,231.21772 674.87488,231.16318 C 676.70401,231.13125 682.75019,239.89612 690.2135,253.39887 C 693.52603,259.39197 699.11577,268.74584 702.63514,274.18525 C 720.91188,302.43319 723.91965,308.41122 720.46817,309.62905 C 718.55634,310.30363 709.11184,307.24927 699.23081,302.76089 C 691.40876,299.20779 690.11727,298.88661 688.86526,300.18309 C 687.91287,301.16933 687.0478,306.31379 686.27591,315.58176 C 680.21496,397.34633 666.58421,476.19569 672.4248,558.86734 C 675.47581,583.50634 679.31981,596.99376 687.28424,611.00446 C 692.85714,620.80807 703.61813,628.95135 711.88088,633.05407 C 734.56798,644.20673 761.51392,640.22253 781.9811,640.81354 C 822.74929,644.0605 831.43756,612.66722 829.83204,567.78395 C 831.28705,460.44966 833.70227,353.1822 837.63009,245.91455 C 838.23241,229.36988 837.89582,219.73044 836.57372,215.66222 C 836.08609,214.16172 828.51324,217.11172 821.09091,221.69356 C 812.754,226.84 799.20572,233.11202 797.04525,232.82523 C 795.96863,232.68232 794.60798,231.82867 794.0216,230.92823 C 792.8136,229.07324 798.89213,215.90359 811.16814,193.77884 C 815.02066,186.83555 821.7876,174.11551 826.20577,165.51209 C 841.03701,136.63155 848.67317,123.03308 850.91704,121.50621 C 853.88778,119.48473 855.93889,120.39964 859.41492,125.29671 C 864.58933,132.58647 914.31626,227.67254 914.36329,230.36703 C 914.39827,232.37131 913.90997,232.99172 912.27498,233.02026 C 909.61279,233.06673 892.89898,225.56622 887.0295,221.69108 C 884.62443,220.10321 880.31729,217.67349 877.45806,216.29169 C 869.53517,212.46275 869.50917,217.31451 870.20567,244.70216 C 870.5251,257.2625 871.38891,270.29503 872.12529,279.48967 C 875.13673,375.724 877.30589,471.94414 882.42934,568.11139 C 884.23625,613.14582 881.38816,643.49077 928.35386,641.58489 C 948.51121,640.24597 984.46457,641.20749 1007.0838,631.27254 C 1012.7778,628.7716 1028.7108,621.50652 1038.0024,608.17237 C 1042.8599,601.20149 1046.0092,587.16314 1048.233,552.41556 C 1050.5305,515.96882 1040.8817,429.88707 1037.4492,404.36176 C 1036.2684,395.58103 1034.945,383.67732 1034.5081,377.90906 C 1033.0226,358.28987 1028.4008,320.13235 1025.9139,306.95511 C 1025.3369,303.8979 1024.5427,302.48412 1023.2784,302.26345 C 1021.3299,301.92335 1012.7644,305.46621 1008.7374,308.27792 C 1007.3787,309.22655 1002.7856,310.99204 998.94672,313.03355 L 992.93713,314.56629 C 988.74541,314.55201 988.41829,312.23643 987.75956,309.73082 C 987.72859,307.95678 995.55422,291.63475 1002.2746,279.45662 C 1014.6609,257.01115 1031.432,229.22983 1033.6164,227.53876 C 1036.0346,225.66677 1036.3316,225.64511 1038.7422,227.16518 C 1040.1497,228.05265 1045.3238,235.34459 1050.2402,243.36949 C 1062.3437,263.12566 1077.6752,287.00565 1084.1165,296.13478 C 1092.0903,307.4356 1094.0197,314.98412 1089.1343,315.76527 C 1087.8004,315.97855 1081.0123,313.1635 1072.3555,308.80704 C 1064.3592,304.78301 1056.9222,301.50625 1055.8289,301.52533 C 1052.0773,301.59082 1052.0985,301.8915 1058.7616,342.98046 C 1065.3797,383.79212 1067.1209,395.12088 1069.0334,409.81137 C 1071.8173,431.19733 1074.9659,452.35998 1079.2445,478.44348 C 1090.4673,546.86171 1092.1668,570.16026 1087.5651,592.51578 C 1081.7445,620.79318 1073.7638,640.65013 1062.71,654.35837 C 1057.1993,661.19243 1044.7512,670.35831 1036.1231,673.93518 C 1006.4504,690.82235 967.54409,694.93536 935.02782,698.00349 C 934.61785,697.46488 827.77341,705.86226 765.90139,699.13404 z"
       style="fill:#b6291f;stroke:#6b291f;stroke-opacity:1;stroke-width:2.40834198999999982;stroke-miterlimit:4;stroke-dasharray:none" />
  </g>
  <path
     sodipodi:nodetypes="csssssssc"
     id="path2612"
     d="M 1173.9456,284.21648 C 1173.9456,378.36179 1003.2042,458.85636 796.20144,458.85636 C 589.19871,458.85636 426.05438,377.30245 426.05438,283.15714 C 426.05438,236.08449 525.69787,200.711 593.57377,169.84089 C 627.51172,154.40584 474.06002,228.24871 516.80131,299.59433 C 559.54261,370.93994 747.62877,381.52482 799.37945,381.52482 C 851.13013,381.52482 1042.3943,369.8806 1089.373,298.53499 C 1136.3516,227.18937 976.54374,156.52451 1010.4817,171.95956 C 1078.3576,202.82967 1173.9456,237.14383 1173.9456,284.21648 z"
     style="fill:#84cace;fill-opacity:0.65098039;stroke:none;stroke-width:1.15499997;stroke-linecap:butt;stroke-linejoin:miter;stroke-miterlimit:4;stroke-opacity:1;filter:url(#filter3523)" />
  <path
     transform="matrix(0.5452883,0,0,0.6108993,335.75579,-169.85944)"
     sodipodi:nodetypes="csssssssc"
     id="path3483"
     d="M 1225.3195,703.99781 C 1225.3195,798.14312 1053.08,837.88257 846.07716,837.88257 C 639.07443,837.88257 477.42823,797.08378 477.42823,702.93847 C 477.42823,655.86582 604.36228,610.10049 654.75381,603.50722 C 692.44053,598.57626 572.73951,664.42148 584.1614,692.49302 C 600.20097,731.91339 797.50449,760.55103 849.25517,760.55103 C 901.00585,760.55103 1101.042,732.32029 1121.7644,687.96556 C 1132.7134,664.53002 995.87732,595.56821 1032.8077,603.89183 C 1085.1419,615.68728 1225.3195,656.92516 1225.3195,703.99781 z"
     style="fill:#84cace;fill-opacity:0.65098039;stroke:none;stroke-width:1.15499997;stroke-linecap:butt;stroke-linejoin:miter;stroke-miterlimit:4;stroke-opacity:1;filter:url(#filter3531)" />
  <path
     transform="matrix(1.5148058,0,0,1.869472,-494.20478,-647.23828)"
     sodipodi:nodetypes="csssssssc"
     id="path3485"
     d="M 1228.3157,526.25178 C 1228.3157,620.39709 1058.0542,683.81838 851.0514,683.81838 C 644.04867,683.81838 480.42449,619.33775 480.42449,525.19244 C 480.42449,478.11979 598.10943,454.31813 665.98533,423.44802 C 699.92328,408.01297 512.94557,463.37706 555.68686,534.72268 C 598.42816,606.06829 799.10211,636.30815 850.85279,636.30815 C 902.60347,636.30815 1105.0568,607.27555 1152.0355,535.92994 C 1199.0141,464.58432 994.40826,405.59844 1028.3462,421.03349 C 1096.2221,451.9036 1228.3157,479.17913 1228.3157,526.25178 z"
     style="fill:#83c9ce;fill-opacity:0.65217393;stroke:none;stroke-width:1.15499997;stroke-linecap:butt;stroke-linejoin:miter;stroke-miterlimit:4;stroke-opacity:1;filter:url(#filter3527)" />
</svg>
